<mxfile host="app.diagrams.net" agent="Mozilla/5.0 (Windows NT 10.0; Win64; x64) AppleWebKit/537.36 (KHTML, like Gecko) Chrome/132.0.0.0 Safari/537.36" version="26.0.11">
  <diagram name="페이지-1" id="vioT3vAq_McGcXE2eDCE">
    <mxGraphModel dx="1434" dy="772" grid="1" gridSize="10" guides="1" tooltips="1" connect="1" arrows="1" fold="1" page="1" pageScale="1" pageWidth="827" pageHeight="1169" math="0" shadow="0">
      <root>
        <mxCell id="0" />
        <mxCell id="1" parent="0" />
        <mxCell id="r31jZNvJZtgtzrXWYTE8-1" value="" style="rounded=1;whiteSpace=wrap;html=1;dashed=1;" vertex="1" parent="1">
          <mxGeometry x="414" y="515" width="270" height="155" as="geometry" />
        </mxCell>
        <mxCell id="r31jZNvJZtgtzrXWYTE8-2" value="" style="edgeStyle=orthogonalEdgeStyle;rounded=0;orthogonalLoop=1;jettySize=auto;html=1;" edge="1" parent="1" source="r31jZNvJZtgtzrXWYTE8-6" target="r31jZNvJZtgtzrXWYTE8-13">
          <mxGeometry relative="1" as="geometry" />
        </mxCell>
        <mxCell id="r31jZNvJZtgtzrXWYTE8-3" value="Public IP: 88.88.88.1" style="edgeLabel;html=1;align=center;verticalAlign=middle;resizable=0;points=[];" vertex="1" connectable="0" parent="r31jZNvJZtgtzrXWYTE8-2">
          <mxGeometry y="-1" relative="1" as="geometry">
            <mxPoint as="offset" />
          </mxGeometry>
        </mxCell>
        <mxCell id="r31jZNvJZtgtzrXWYTE8-4" value="" style="edgeStyle=orthogonalEdgeStyle;rounded=0;orthogonalLoop=1;jettySize=auto;html=1;" edge="1" parent="1" source="r31jZNvJZtgtzrXWYTE8-6" target="r31jZNvJZtgtzrXWYTE8-15">
          <mxGeometry relative="1" as="geometry" />
        </mxCell>
        <mxCell id="r31jZNvJZtgtzrXWYTE8-5" value="&lt;span style=&quot;font-size: 12px; text-wrap-mode: wrap; background-color: rgb(251, 251, 251);&quot;&gt;server.com&lt;/span&gt;" style="edgeLabel;html=1;align=center;verticalAlign=middle;resizable=0;points=[];" vertex="1" connectable="0" parent="r31jZNvJZtgtzrXWYTE8-4">
          <mxGeometry x="-0.0645" y="-1" relative="1" as="geometry">
            <mxPoint as="offset" />
          </mxGeometry>
        </mxCell>
        <mxCell id="r31jZNvJZtgtzrXWYTE8-6" value="" style="rounded=1;whiteSpace=wrap;html=1;" vertex="1" parent="1">
          <mxGeometry x="414" y="90" width="270" height="140" as="geometry" />
        </mxCell>
        <mxCell id="r31jZNvJZtgtzrXWYTE8-7" value="&lt;font&gt;웹 브라우저&lt;/font&gt;" style="verticalAlign=top;verticalLabelPosition=bottom;labelPosition=center;align=center;html=1;outlineConnect=0;gradientDirection=north;strokeWidth=1;shape=mxgraph.networks.pc;fillColor=#d5e8d4;strokeColor=#82b366;" vertex="1" parent="1">
          <mxGeometry x="444" y="120" width="100" height="70" as="geometry" />
        </mxCell>
        <mxCell id="r31jZNvJZtgtzrXWYTE8-8" value="모바일 앱" style="outlineConnect=0;dashed=0;verticalLabelPosition=bottom;verticalAlign=top;align=center;html=1;shape=mxgraph.aws3.mobile_client;fillColor=#f8cecc;strokeColor=#b85450;" vertex="1" parent="1">
          <mxGeometry x="594" y="127" width="40.5" height="63" as="geometry" />
        </mxCell>
        <mxCell id="r31jZNvJZtgtzrXWYTE8-9" value="" style="edgeStyle=orthogonalEdgeStyle;rounded=0;orthogonalLoop=1;jettySize=auto;html=1;entryX=0.5;entryY=0;entryDx=0;entryDy=0;" edge="1" parent="1" source="r31jZNvJZtgtzrXWYTE8-13" target="r31jZNvJZtgtzrXWYTE8-16">
          <mxGeometry relative="1" as="geometry">
            <mxPoint x="549" y="482" as="targetPoint" />
            <Array as="points">
              <mxPoint x="549" y="440" />
              <mxPoint x="484" y="440" />
            </Array>
          </mxGeometry>
        </mxCell>
        <mxCell id="r31jZNvJZtgtzrXWYTE8-10" value="Private IP: 10.0.0.1" style="edgeLabel;html=1;align=center;verticalAlign=middle;resizable=0;points=[];" vertex="1" connectable="0" parent="r31jZNvJZtgtzrXWYTE8-9">
          <mxGeometry x="0.5946" y="-1" relative="1" as="geometry">
            <mxPoint y="-8" as="offset" />
          </mxGeometry>
        </mxCell>
        <mxCell id="r31jZNvJZtgtzrXWYTE8-11" value="" style="edgeStyle=orthogonalEdgeStyle;rounded=0;orthogonalLoop=1;jettySize=auto;html=1;entryX=0.5;entryY=0;entryDx=0;entryDy=0;exitX=0.5;exitY=1;exitDx=0;exitDy=0;exitPerimeter=0;" edge="1" parent="1" source="r31jZNvJZtgtzrXWYTE8-13" target="r31jZNvJZtgtzrXWYTE8-17">
          <mxGeometry relative="1" as="geometry">
            <mxPoint x="669" y="364" as="targetPoint" />
            <Array as="points">
              <mxPoint x="549" y="440" />
              <mxPoint x="614" y="440" />
            </Array>
          </mxGeometry>
        </mxCell>
        <mxCell id="r31jZNvJZtgtzrXWYTE8-12" value="Private IP: 10.0.0.2" style="edgeLabel;html=1;align=center;verticalAlign=middle;resizable=0;points=[];" vertex="1" connectable="0" parent="r31jZNvJZtgtzrXWYTE8-11">
          <mxGeometry x="0.5946" relative="1" as="geometry">
            <mxPoint y="-8" as="offset" />
          </mxGeometry>
        </mxCell>
        <mxCell id="r31jZNvJZtgtzrXWYTE8-13" value="" style="points=[[0.5,0,0],[0.765,0.48,0],[0.99,0.98,0],[0.5,1,0],[0.01,0.98,0],[0.235,0.48,0]];verticalLabelPosition=bottom;sketch=0;html=1;verticalAlign=top;aspect=fixed;align=center;pointerEvents=1;shape=mxgraph.cisco19.ldap;fillColor=#005073;strokeColor=none;" vertex="1" parent="1">
          <mxGeometry x="509" y="330" width="80" height="68" as="geometry" />
        </mxCell>
        <mxCell id="r31jZNvJZtgtzrXWYTE8-14" value="" style="edgeStyle=orthogonalEdgeStyle;rounded=0;orthogonalLoop=1;jettySize=auto;html=1;" edge="1" parent="1" source="r31jZNvJZtgtzrXWYTE8-15">
          <mxGeometry relative="1" as="geometry">
            <mxPoint x="245" y="285" as="targetPoint" />
          </mxGeometry>
        </mxCell>
        <mxCell id="r31jZNvJZtgtzrXWYTE8-15" value="" style="image;aspect=fixed;html=1;points=[];align=center;fontSize=12;image=img/lib/azure2/networking/DNS_Zones.svg;" vertex="1" parent="1">
          <mxGeometry x="200" y="115" width="90" height="90" as="geometry" />
        </mxCell>
        <mxCell id="r31jZNvJZtgtzrXWYTE8-16" value="서버 1" style="image;aspect=fixed;perimeter=ellipsePerimeter;html=1;align=center;shadow=0;dashed=0;spacingTop=3;image=img/lib/active_directory/generic_server.svg;" vertex="1" parent="1">
          <mxGeometry x="458.6" y="540" width="50.4" height="90" as="geometry" />
        </mxCell>
        <mxCell id="r31jZNvJZtgtzrXWYTE8-17" value="서버 2" style="image;aspect=fixed;perimeter=ellipsePerimeter;html=1;align=center;shadow=0;dashed=0;spacingTop=3;image=img/lib/active_directory/generic_server.svg;" vertex="1" parent="1">
          <mxGeometry x="589" y="540" width="50.4" height="90" as="geometry" />
        </mxCell>
        <mxCell id="r31jZNvJZtgtzrXWYTE8-18" value="로드밸런서" style="text;html=1;align=center;verticalAlign=middle;resizable=0;points=[];autosize=1;strokeColor=none;fillColor=none;" vertex="1" parent="1">
          <mxGeometry x="589" y="349" width="80" height="30" as="geometry" />
        </mxCell>
        <mxCell id="r31jZNvJZtgtzrXWYTE8-19" value="" style="shape=table;startSize=0;container=1;collapsible=0;childLayout=tableLayout;" vertex="1" parent="1">
          <mxGeometry x="140" y="290" width="210" height="80" as="geometry" />
        </mxCell>
        <mxCell id="r31jZNvJZtgtzrXWYTE8-20" value="" style="shape=tableRow;horizontal=0;startSize=0;swimlaneHead=0;swimlaneBody=0;strokeColor=inherit;top=0;left=0;bottom=0;right=0;collapsible=0;dropTarget=0;fillColor=none;points=[[0,0.5],[1,0.5]];portConstraint=eastwest;" vertex="1" parent="r31jZNvJZtgtzrXWYTE8-19">
          <mxGeometry width="210" height="40" as="geometry" />
        </mxCell>
        <mxCell id="r31jZNvJZtgtzrXWYTE8-21" value="도메인" style="shape=partialRectangle;html=1;whiteSpace=wrap;connectable=0;strokeColor=inherit;overflow=hidden;fillColor=none;top=0;left=0;bottom=0;right=0;pointerEvents=1;" vertex="1" parent="r31jZNvJZtgtzrXWYTE8-20">
          <mxGeometry width="105" height="40" as="geometry">
            <mxRectangle width="105" height="40" as="alternateBounds" />
          </mxGeometry>
        </mxCell>
        <mxCell id="r31jZNvJZtgtzrXWYTE8-22" value="IP" style="shape=partialRectangle;html=1;whiteSpace=wrap;connectable=0;strokeColor=inherit;overflow=hidden;fillColor=none;top=0;left=0;bottom=0;right=0;pointerEvents=1;" vertex="1" parent="r31jZNvJZtgtzrXWYTE8-20">
          <mxGeometry x="105" width="105" height="40" as="geometry">
            <mxRectangle width="105" height="40" as="alternateBounds" />
          </mxGeometry>
        </mxCell>
        <mxCell id="r31jZNvJZtgtzrXWYTE8-23" value="" style="shape=tableRow;horizontal=0;startSize=0;swimlaneHead=0;swimlaneBody=0;strokeColor=inherit;top=0;left=0;bottom=0;right=0;collapsible=0;dropTarget=0;fillColor=none;points=[[0,0.5],[1,0.5]];portConstraint=eastwest;" vertex="1" parent="r31jZNvJZtgtzrXWYTE8-19">
          <mxGeometry y="40" width="210" height="40" as="geometry" />
        </mxCell>
        <mxCell id="r31jZNvJZtgtzrXWYTE8-24" value="server.com" style="shape=partialRectangle;html=1;whiteSpace=wrap;connectable=0;strokeColor=inherit;overflow=hidden;fillColor=none;top=0;left=0;bottom=0;right=0;pointerEvents=1;" vertex="1" parent="r31jZNvJZtgtzrXWYTE8-23">
          <mxGeometry width="105" height="40" as="geometry">
            <mxRectangle width="105" height="40" as="alternateBounds" />
          </mxGeometry>
        </mxCell>
        <mxCell id="r31jZNvJZtgtzrXWYTE8-25" value="&lt;span style=&quot;color: rgb(0, 0, 0); font-family: Helvetica; font-size: 12px; font-style: normal; font-variant-ligatures: normal; font-variant-caps: normal; font-weight: 400; letter-spacing: normal; orphans: 2; text-align: center; text-indent: 0px; text-transform: none; widows: 2; word-spacing: 0px; -webkit-text-stroke-width: 0px; white-space: normal; background-color: rgb(251, 251, 251); text-decoration-thickness: initial; text-decoration-style: initial; text-decoration-color: initial; float: none; display: inline !important;&quot;&gt;88.88.88.1&lt;/span&gt;" style="shape=partialRectangle;html=1;whiteSpace=wrap;connectable=0;strokeColor=inherit;overflow=hidden;fillColor=none;top=0;left=0;bottom=0;right=0;pointerEvents=1;" vertex="1" parent="r31jZNvJZtgtzrXWYTE8-23">
          <mxGeometry x="105" width="105" height="40" as="geometry">
            <mxRectangle width="105" height="40" as="alternateBounds" />
          </mxGeometry>
        </mxCell>
      </root>
    </mxGraphModel>
  </diagram>
</mxfile>
